HIERARCHY
ROOT Hips
{
	OFFSET 0.000000 0.000000 0.000000
	CHANNELS 6 Xposition Yposition Zposition Xrotation Yrotation Zrotation
	JOINT LeftUpLeg_virtual
	{
		OFFSET 0.000000 0.000000 0.000000
		CHANNELS 3 Xrotation Yrotation Zrotation
		JOINT LeftUpLeg
		{
			OFFSET 15.427100 -6.655098 0.678600
			CHANNELS 3 Xrotation Yrotation Zrotation
			JOINT LeftLeg
			{
				OFFSET 4.081073 -39.591068 13.024000
				CHANNELS 3 Xrotation Yrotation Zrotation
				JOINT LeftFoot
				{
					OFFSET -4.081074 -37.707932 -15.979700
					CHANNELS 3 Xrotation Yrotation Zrotation
					JOINT LeftToeBase
					{
						OFFSET 5.346399 -15.068900 20.645000
						CHANNELS 3 Xrotation Yrotation Zrotation
						JOINT LeftToe_End
						{
							OFFSET 2.754700 0.931300 11.300900
							CHANNELS 3 Xrotation Yrotation Zrotation
							End Site
							{
								OFFSET 0 0 0
							}
						}
					}
				}
			}
		}
	}
	JOINT RightUpLeg_virtual
	{
		OFFSET 0.000000 0.000000 0.000000
		CHANNELS 3 Xrotation Yrotation Zrotation
		JOINT RightUpLeg
		{
			OFFSET -15.569500 -6.655098 0.678600
			CHANNELS 3 Xrotation Yrotation Zrotation
			JOINT RightLeg
			{
				OFFSET -4.081825 -39.591045 13.023800
				CHANNELS 3 Xrotation Yrotation Zrotation
				JOINT RightFoot
				{
					OFFSET 4.081824 -37.707954 -15.979600
					CHANNELS 3 Xrotation Yrotation Zrotation
					JOINT RightToeBase
					{
						OFFSET -5.346400 -15.068900 20.645000
						CHANNELS 3 Xrotation Yrotation Zrotation
						JOINT RightToe_End
						{
							OFFSET -2.754700 0.931300 11.300900
							CHANNELS 3 Xrotation Yrotation Zrotation
							End Site
							{
								OFFSET 0 0 0
							}
						}
					}
				}
			}
		}
	}
	JOINT Spine_virtual
	{
		OFFSET 0.000000 0.000000 0.000000
		CHANNELS 3 Xrotation Yrotation Zrotation
		JOINT Spine
		{
			OFFSET -0.279200 12.230698 -2.892100
			CHANNELS 3 Xrotation Yrotation Zrotation
			JOINT Spine1
			{
				OFFSET -0.232667 10.192268 -1.242267
				CHANNELS 3 Xrotation Yrotation Zrotation
				JOINT Spine1_split
				{
					OFFSET -0.232667 10.192268 -1.242267
					CHANNELS 3 Xrotation Yrotation Zrotation
					JOINT Spine2
					{
						OFFSET -0.232667 10.192268 -1.242267
						CHANNELS 3 Xrotation Yrotation Zrotation
						JOINT Neck_virtual
						{
							OFFSET 0.000000 0.000000 0.000000
							CHANNELS 3 Xrotation Yrotation Zrotation
							JOINT Neck
							{
								OFFSET -0.418800 17.814194 8.416900
								CHANNELS 3 Xrotation Yrotation Zrotation
								JOINT Head
								{
									OFFSET 0.000000 7.031097 3.806800
									CHANNELS 3 Xrotation Yrotation Zrotation
									JOINT HeadTop_End
									{
										OFFSET 0.000000 24.646606 12.978600
										CHANNELS 3 Xrotation Yrotation Zrotation
										End Site
										{
											OFFSET 0 0 0
										}
									}
								}
							}
						}
						JOINT LeftShoulder_virtual
						{
							OFFSET 0.000000 0.000000 0.000000
							CHANNELS 3 Xrotation Yrotation Zrotation
							JOINT LeftShoulder
							{
								OFFSET 8.476499 7.247704 -3.868750
								CHANNELS 3 Xrotation Yrotation Zrotation
								JOINT LeftShoulder_split
								{
									OFFSET 8.476499 7.247704 -3.868750
									CHANNELS 3 Xrotation Yrotation Zrotation
									JOINT LeftArm
									{
										OFFSET 9.308998 -2.777710 0.208600
										CHANNELS 3 Xrotation Yrotation Zrotation
										JOINT LeftForeArm
										{
											OFFSET 29.972298 0.000000 0.000000
											CHANNELS 3 Xrotation Yrotation Zrotation
											JOINT LeftHand
											{
												OFFSET 26.026505 0.000000 0.000000
												CHANNELS 3 Xrotation Yrotation Zrotation
												End Site
												{
													OFFSET 0 0 0
												}
											}
										}
									}
								}
							}
						}
						JOINT RightShoulder_virtual
						{
							OFFSET 0.000000 0.000000 0.000000
							CHANNELS 3 Xrotation Yrotation Zrotation
							JOINT RightShoulder
							{
								OFFSET -7.570500 7.247704 -3.868750
								CHANNELS 3 Xrotation Yrotation Zrotation
								JOINT RightShoulder_split
								{
									OFFSET -7.570500 7.247704 -3.868750
									CHANNELS 3 Xrotation Yrotation Zrotation
									JOINT RightArm
									{
										OFFSET -9.308998 -2.777710 0.208500
										CHANNELS 3 Xrotation Yrotation Zrotation
										JOINT RightForeArm
										{
											OFFSET -29.972300 0.000000 0.000000
											CHANNELS 3 Xrotation Yrotation Zrotation
											JOINT RightHand
											{
												OFFSET -26.026505 0.000000 0.000000
												CHANNELS 3 Xrotation Yrotation Zrotation
												End Site
												{
													OFFSET 0 0 0
												}
											}
										}
									}
								}
							}
						}
					}
				}
			}
		}
	}
}
MOTION
Frames: 7
Frame Time: 0.03333333
1.818155 136.970795 17.706930 0.000000 0.000000 0.000000 4.478735 -39.739851 2.404348 -80.398362 -18.031541 22.863508 77.653759 0.220576 2.700046 6.076672 1.585448 -1.989660 -9.679607 1.098391 0.364550 0.000000 0.000000 0.000000 4.139306 -39.653794 1.616599 -111.522857 -39.600487 0.627615 101.389247 16.147971 -7.533030 39.894978 4.428264 22.920718 7.920060 2.423327 -2.663044 0.000000 0.000000 0.000000 3.761846 -39.328458 0.763818 32.193352 -6.121242 -8.853856 13.549991 0.888685 -3.609982 0.306584 -0.385399 1.274754 0.000000 0.000000 0.000000 13.179908 1.215448 -2.710642 -7.258431 19.053349 -12.807568 -25.224001 11.065403 4.799310 0.000000 0.000000 0.000000 14.613383 1.316429 -2.993749 13.477934 -17.214846 4.171052 1.521887 -3.170827 -4.226273 -57.512843 -11.603134 -3.786671 48.112918 -17.024518 30.001237 0.000000 0.000000 0.000000 14.886370 1.333323 -3.038950 18.945702 26.128885 -8.106181 1.174391 6.228296 2.712446 -37.390245 1.660602 6.267198 -44.686663 45.311345 32.989783 0.000000 0.000000 0.000000 
1.830370 136.915192 17.710281 0.000000 0.000000 0.000000 4.495353 -39.956002 2.458799 -80.358788 -17.952730 22.950522 77.586202 0.142892 2.536021 5.943001 1.879104 -2.036122 -9.664649 1.096988 0.334042 0.000000 0.000000 0.000000 4.145730 -39.865355 1.667258 -111.028577 -39.647534 0.826620 101.106553 16.220892 -7.576294 39.620288 4.353329 22.653770 7.910187 2.424146 -2.716085 0.000000 0.000000 0.000000 3.734057 -39.467794 0.808187 32.149233 -6.102274 -8.883820 13.499695 0.900140 -3.582263 0.253238 -0.377619 1.295153 0.000000 0.000000 0.000000 13.212179 1.220101 -2.703241 -7.204057 19.098321 -12.791953 -24.960139 11.217106 4.706674 0.000000 0.000000 0.000000 14.588965 1.330800 -2.955375 13.212451 -17.336304 3.425053 1.690037 -3.257109 -4.505013 -56.780951 -10.988539 -3.788820 47.924395 -16.734092 29.684221 0.000000 0.000000 0.000000 14.865423 1.327334 -3.028207 18.483785 26.479382 -7.114676 1.248854 6.278206 2.672319 -36.355198 1.711361 6.099639 -44.679853 45.076045 32.852520 0.000000 0.000000 0.000000 
1.834452 136.857849 17.708912 0.000000 0.000000 0.000000 4.562913 -40.113814 2.561010 -80.272215 -17.899385 22.952627 77.445220 0.024630 2.375191 5.713415 2.208729 -2.090066 -9.672109 1.079937 0.337387 0.000000 0.000000 0.000000 4.187156 -40.002745 1.747623 -110.556440 -39.651782 1.005720 100.847053 16.250905 -7.621695 39.318612 4.301936 22.425715 7.909200 2.418329 -2.746309 0.000000 0.000000 0.000000 3.736320 -39.586018 0.881136 32.044577 -6.078421 -8.900568 13.439597 0.902890 -3.555313 0.229000 -0.385054 1.311333 0.000000 0.000000 0.000000 13.229883 1.219642 -2.700186 -7.122216 19.129234 -12.769730 -24.674014 11.363585 4.656501 0.000000 0.000000 0.000000 14.553187 1.340261 -2.921256 13.002524 -17.404428 2.783719 1.778656 -3.369416 -4.809612 -56.018360 -10.192806 -3.642500 47.653356 -16.502179 29.358445 0.000000 0.000000 0.000000 14.825825 1.319882 -3.017189 18.063924 26.756754 -6.256385 1.340422 6.320225 2.710661 -35.473209 1.470472 5.788299 -44.727726 44.782637 32.742626 0.000000 0.000000 0.000000 
1.831430 136.809967 17.685532 0.000000 0.000000 0.000000 4.676780 -40.193601 2.724339 -80.145201 -17.866644 22.862098 77.240294 -0.114828 2.223963 5.440831 2.574655 -2.142936 -9.696732 1.050703 0.368577 0.000000 0.000000 0.000000 4.264668 -40.074851 1.881487 -110.136841 -39.612539 1.104931 100.602717 16.250699 -7.658422 39.007846 4.299292 22.248715 7.902561 2.409155 -2.764200 0.000000 0.000000 0.000000 3.761862 -39.678625 1.004200 31.901321 -6.067051 -8.907943 13.379722 0.894801 -3.532732 0.249859 -0.380755 1.361556 0.000000 0.000000 0.000000 13.235125 1.212789 -2.703501 -7.039302 19.149479 -12.741555 -24.406889 11.506786 4.642939 0.000000 0.000000 0.000000 14.504656 1.341999 -2.896796 12.832341 -17.428023 2.191469 1.766649 -3.443678 -5.125677 -55.243373 -9.213796 -3.399618 47.390673 -16.375667 29.094724 0.000000 0.000000 0.000000 14.765571 1.308937 -3.007055 17.692007 26.972424 -5.510942 1.466569 6.361236 2.813022 -34.804493 1.111989 5.412414 -44.752018 44.398733 32.580180 0.000000 0.000000 0.000000 
1.812984 136.777451 17.657333 0.000000 0.000000 0.000000 4.803932 -40.213674 2.945428 -79.965492 -17.827704 22.717325 76.976826 -0.249399 2.075661 5.158662 2.985415 -2.172392 -9.747098 1.016812 0.413028 0.000000 0.000000 0.000000 4.382269 -40.101338 2.081624 -109.796008 -39.531052 1.070813 100.382635 16.239668 -7.671201 38.711210 4.357535 22.123297 7.868321 2.399149 -2.780448 0.000000 0.000000 0.000000 3.801478 -39.739639 1.173983 31.741071 -6.075121 -8.912979 13.314878 0.879807 -3.520855 0.298283 -0.366453 1.371399 0.000000 0.000000 0.000000 13.218057 1.200592 -2.713075 -6.973076 19.165905 -12.722192 -24.183444 11.666779 4.656828 0.000000 0.000000 0.000000 14.435893 1.335602 -2.882586 12.668930 -17.410774 1.568042 1.658457 -3.427250 -5.339584 -54.487984 -8.027601 -3.058718 47.262262 -16.416913 28.974192 0.000000 0.000000 0.000000 14.681049 1.293206 -3.001418 17.361405 27.129030 -4.837061 1.583033 6.375452 2.965524 -34.298314 0.771374 5.020984 -44.732767 43.955477 32.362488 0.000000 0.000000 0.000000 
1.795551 136.755081 17.619850 0.000000 0.000000 0.000000 4.938277 -40.205454 3.218829 -79.747800 -17.751178 22.543656 76.676544 -0.367051 1.932614 4.892912 3.417496 -2.173028 -9.825972 0.984352 0.460387 0.000000 0.000000 0.000000 4.520418 -40.113841 2.337445 -109.556214 -39.414071 0.884747 100.201341 16.239227 -7.661204 38.450611 4.479718 22.044900 7.793354 2.390089 -2.802599 0.000000 0.000000 0.000000 3.840489 -39.775241 1.384482 31.584936 -6.099025 -8.915656 13.242446 0.861635 -3.515606 0.334062 -0.365276 1.365253 0.000000 0.000000 0.000000 13.173099 1.185021 -2.724063 -6.939238 19.180628 -12.719720 -24.001099 11.832926 4.682402 0.000000 0.000000 0.000000 14.342228 1.325230 -2.876122 12.488980 -17.325413 0.856589 1.475959 -3.328044 -5.403145 -53.818711 -6.666177 -2.649341 47.293599 -16.577655 29.004924 0.000000 0.000000 0.000000 14.575753 1.274309 -2.997447 17.059530 27.222844 -4.180871 1.679451 6.325723 3.128745 -33.908867 0.463844 4.680622 -44.632558 43.461593 32.074247 0.000000 0.000000 0.000000 
1.769651 136.741074 17.591614 0.000000 0.000000 0.000000 5.049687 -40.199116 3.517553 -79.497023 -17.609544 22.398716 76.359678 -0.480105 1.797045 4.656960 3.815065 -2.169026 -9.907931 0.953782 0.503463 0.000000 0.000000 0.000000 4.660109 -40.132064 2.632799 -109.431536 -39.272358 0.568130 100.064710 16.254042 -7.629889 38.237325 4.644628 21.999611 7.668241 2.383316 -2.828250 0.000000 0.000000 0.000000 3.862942 -39.785237 1.600066 31.440655 -6.128474 -8.917263 13.154668 0.843459 -3.507545 0.369302 -0.338654 1.315160 0.000000 0.000000 0.000000 13.095145 1.167717 -2.732227 -6.935461 19.190528 -12.741657 -23.840015 11.991697 4.699050 0.000000 0.000000 0.000000 14.229613 1.312167 -2.871418 12.281139 -17.136320 0.046199 1.223067 -3.151401 -5.374594 -53.265319 -5.138193 -2.211856 47.412294 -16.722298 29.104239 0.000000 0.000000 0.000000 14.447342 1.254249 -2.984065 16.765449 27.215237 -3.510801 1.698889 6.269490 3.254395 -33.508000 0.113372 4.439326 -44.499792 43.012382 31.808382 0.000000 0.000000 0.000000 
